<?xml version="1.0" standalone="no"?>
<!DOCTYPE svg PUBLIC "-//W3C//DTD SVG 20010904//EN"
 "http://www.w3.org/TR/2001/REC-SVG-20010904/DTD/svg10.dtd">
<svg version="1.0" xmlns="http://www.w3.org/2000/svg"
 width="266.000000pt" height="266.000000pt" viewBox="0 0 266.000000 266.000000"
 preserveAspectRatio="xMidYMid meet">
<metadata>
Created by potrace 1.11, written by Peter Selinger 2001-2013
</metadata>
<g transform="translate(0.000000,266.000000) scale(0.100000,-0.100000)"
fill="#000000" stroke="none">
<path d="M0 1331 l0 -1328 75 -1 c52 -1 74 3 72 11 -1 8 10 11 30 10 24 -2 31
1 27 11 -4 10 2 12 21 8 19 -3 23 -8 16 -15 -6 -6 -11 -15 -11 -19 0 -4 68 -8
151 -8 115 0 150 3 147 12 -5 14 -1 19 65 85 23 24 36 43 29 43 -6 0 -12 -5
-12 -10 0 -6 -16 -9 -36 -6 -29 3 -38 0 -41 -14 -6 -22 -44 -21 -67 3 -24 23
-19 59 11 81 18 13 24 15 21 5 -6 -17 15 -39 41 -44 14 -3 20 4 25 26 5 26 9
29 28 23 13 -4 29 -14 36 -23 8 -9 11 -11 8 -5 -3 7 0 17 8 23 7 6 16 24 19
39 3 15 26 61 51 102 29 48 42 78 36 84 -23 23 -4 56 33 60 4 1 18 26 30 56
32 77 103 196 128 214 21 14 23 45 8 95 -2 7 18 29 46 49 69 49 155 63 129 20
-5 -7 -10 -30 -12 -51 -3 -36 -2 -38 20 -32 13 4 23 8 24 9 1 0 6 66 11 146
l10 145 -55 119 c-65 139 -68 162 -53 361 12 161 30 241 76 340 18 39 45 100
60 137 15 37 55 102 91 147 l63 80 -27 20 c-26 18 -26 20 -9 38 23 26 22 36
-4 23 -37 -20 -32 -3 8 26 21 15 43 33 48 39 18 19 143 57 207 62 35 3 70 12
79 20 30 26 89 16 194 -32 61 -28 92 -50 144 -104 123 -128 246 -367 271 -523
6 -39 13 -74 15 -78 3 -5 -2 -10 -9 -13 -8 -3 -17 -1 -19 6 -9 24 -15 0 -20
-70 -5 -71 7 -133 26 -133 5 0 4 -7 -3 -15 -10 -12 -10 -18 0 -30 6 -8 9 -18
6 -23 -3 -5 -8 -33 -11 -63 -3 -29 -12 -60 -20 -68 -13 -13 -15 -9 -12 37 2
29 0 55 -5 58 -4 3 -8 14 -8 24 0 10 -17 46 -37 80 -30 51 -34 63 -22 71 12 8
12 10 -1 18 -12 8 -12 11 4 17 12 5 22 2 28 -9 19 -34 29 -17 23 36 -9 64 -10
67 -43 68 -21 1 -22 2 -7 6 30 7 40 20 27 36 -7 8 -10 16 -7 19 3 3 -1 11 -10
18 -8 7 -15 22 -15 35 0 12 -3 25 -7 29 -4 3 -8 16 -10 29 -9 65 -24 107 -37
107 -7 0 -17 15 -24 33 -7 19 -28 51 -47 73 l-36 39 19 -40 c11 -22 25 -58 32
-80 7 -22 16 -44 20 -50 9 -12 30 -85 24 -85 -5 0 -42 58 -78 124 -36 64 -58
94 -75 101 -13 5 -13 4 0 -12 16 -20 39 -60 39 -68 0 -10 -66 8 -80 22 -13 13
-12 14 8 8 21 -6 22 -5 14 12 -11 20 -146 153 -156 153 -3 0 21 -27 54 -60 33
-33 60 -65 60 -72 0 -7 -18 6 -40 27 -51 50 -51 39 0 -26 22 -28 40 -55 40
-59 0 -5 3 -16 6 -25 4 -9 -28 19 -72 64 -43 44 -90 84 -104 89 -66 24 -190
48 -190 37 0 -9 120 -65 141 -65 11 0 19 -5 17 -12 -2 -6 30 -34 71 -62 66
-44 80 -60 109 -115 30 -58 33 -72 31 -140 -2 -75 -14 -121 -31 -121 -5 0 -19
7 -32 15 -26 17 -188 39 -217 30 -26 -9 -24 -34 4 -44 12 -4 55 -11 95 -15 80
-7 116 -21 147 -58 34 -40 45 -66 45 -112 0 -68 -50 -286 -75 -331 -13 -22
-55 -71 -95 -109 -39 -37 -69 -71 -66 -74 3 -3 -3 -12 -13 -21 -26 -23 -92
-155 -80 -160 6 -2 21 1 32 7 79 39 123 43 142 13 3 -6 19 -11 35 -11 16 0 32
-5 35 -10 4 -6 29 -22 57 -36 44 -22 49 -28 44 -50 -7 -26 3 -30 35 -14 10 6
19 18 19 26 0 9 8 27 19 40 17 21 20 22 32 8 7 -9 13 -28 14 -42 0 -20 6 -28
23 -30 27 -4 27 0 1 52 -12 22 -25 48 -30 57 -7 16 35 117 60 142 6 6 11 19
11 28 0 10 6 24 14 32 8 8 19 30 23 48 l9 34 18 -28 c10 -15 24 -27 31 -27 20
0 26 -29 8 -39 -14 -7 -11 -12 21 -25 21 -9 43 -16 49 -16 6 0 3 -6 -8 -13
-12 -10 -14 -16 -7 -21 7 -4 12 -20 12 -35 0 -15 5 -32 12 -39 7 -7 8 -12 2
-12 -5 0 -9 -23 -10 -51 -1 -32 -6 -54 -15 -60 -11 -7 -12 -12 -1 -29 11 -18
10 -20 -11 -20 -15 0 -35 -13 -53 -35 -20 -24 -37 -35 -56 -35 -37 0 -35 -9
12 -45 21 -16 39 -35 40 -42 0 -6 11 -20 24 -30 13 -10 30 -32 39 -48 9 -17
29 -45 46 -62 16 -18 27 -33 24 -33 -3 0 0 -7 7 -15 7 -8 17 -15 23 -15 6 0 3
6 -8 13 -11 9 -14 16 -8 20 6 4 22 -2 34 -12 22 -18 23 -22 11 -42 -12 -19
-12 -21 2 -16 10 4 16 1 16 -8 0 -8 5 -15 10 -15 6 0 10 4 10 9 0 15 40 0 54
-20 11 -17 17 -18 45 -8 24 9 29 14 19 20 -9 6 -6 9 12 9 14 -1 43 -12 65 -25
48 -30 55 -31 55 -6 0 13 -6 18 -17 15 -11 -2 -25 5 -34 19 -17 23 -16 23 17
19 l34 -4 0 272 0 272 -22 -6 c-13 -3 -29 -6 -35 -6 -7 0 -13 -7 -13 -15 0 -8
-7 -15 -15 -15 -18 0 -19 -12 -2 -29 10 -11 7 -12 -13 -6 -33 10 -36 13 -23
26 6 6 9 18 6 25 -3 8 0 14 7 14 6 0 8 -4 5 -10 -3 -6 1 -7 10 -4 9 4 14 9 11
11 -12 12 22 30 52 28 l32 -2 0 864 0 863 -98 0 -98 0 -9 -32 c-6 -17 -16 -34
-24 -36 -11 -4 -13 3 -8 32 l6 36 -1215 0 -1214 0 0 -1329z m1920 1268 c8 0 2
-5 -14 -9 -31 -10 -46 -6 -46 12 0 6 10 8 23 4 12 -3 29 -6 37 -7z m560 -15
c0 -8 -5 -14 -11 -14 -6 0 -8 -7 -5 -15 21 -51 21 -51 -2 -31 -24 21 -27 38
-11 67 11 21 29 17 29 -7z m-510 -4 c0 -5 -5 -10 -11 -10 -5 0 -7 5 -4 10 3 6
8 10 11 10 2 0 4 -4 4 -10z m460 -30 c0 -5 -5 -10 -11 -10 -5 0 -7 5 -4 10 3
6 8 10 11 10 2 0 4 -4 4 -10z m-80 -280 c-9 -6 -16 -6 -18 0 -2 5 -10 6 -19 3
-12 -5 -12 -2 3 15 16 20 20 20 34 7 13 -14 13 -17 0 -25z m-1825 -61 c11 -17
-1 -21 -15 -4 -8 9 -8 15 -2 15 6 0 14 -5 17 -11z m1748 -43 c18 -14 24 -46 8
-46 -5 0 -23 6 -41 13 -29 13 -31 15 -15 30 20 20 25 20 48 3z m-1883 -51 c0
-8 -4 -15 -10 -15 -5 0 -7 7 -4 15 4 8 8 15 10 15 2 0 4 -7 4 -15z m84 -31 c5
-13 1 -14 -27 -9 -48 10 -57 25 -15 25 23 0 38 -5 42 -16z m-165 -89 c1 11 21
-15 21 -27 0 -13 -18 -9 -33 7 -8 8 -18 11 -22 7 -4 -4 -2 4 5 18 13 23 14 24
21 5 4 -11 8 -15 8 -10z m116 5 c3 -5 -1 -10 -10 -10 -9 0 -13 5 -10 10 3 6 8
10 10 10 2 0 7 -4 10 -10z m-38 -66 c-9 -9 -28 6 -21 18 4 6 10 6 17 -1 6 -6
8 -13 4 -17z m43 6 c0 -5 -4 -10 -10 -10 -5 0 -10 5 -10 10 0 6 5 10 10 10 6
0 10 -4 10 -10z m-200 -10 c0 -5 -7 -10 -15 -10 -8 0 -15 5 -15 10 0 6 7 10
15 10 8 0 15 -4 15 -10z m290 -15 c-7 -9 -15 -13 -18 -10 -3 2 1 11 8 20 7 9
15 13 18 10 3 -2 -1 -11 -8 -20z m80 9 c0 -8 -5 -12 -10 -9 -6 4 -8 11 -5 16
9 14 15 11 15 -7z m1740 2 c0 -3 -4 -8 -10 -11 -5 -3 -10 -1 -10 4 0 6 5 11
10 11 6 0 10 -2 10 -4z m185 -73 c-9 -8 -18 -13 -21 -10 -8 8 19 36 29 30 4
-2 0 -11 -8 -20z m-2445 9 c0 -13 -12 -22 -22 -16 -10 6 -1 24 13 24 5 0 9 -4
9 -8z m251 -35 c-1 -12 -15 -9 -19 4 -3 6 1 10 8 8 6 -3 11 -8 11 -12z m2015
-24 c-10 -10 -19 5 -10 18 6 11 8 11 12 0 2 -7 1 -15 -2 -18z m227 10 c-7 -2
-19 -2 -25 0 -7 3 -2 5 12 5 14 0 19 -2 13 -5z m-2286 -31 c14 11 15 11 11 -2
-2 -8 -12 -16 -21 -18 -13 -3 -17 3 -16 25 2 24 2 25 6 5 4 -20 7 -21 20 -10z
m2148 9 c10 -17 -34 -34 -51 -20 -11 9 -14 8 -14 -7 0 -14 -3 -15 -12 -6 -18
18 9 34 34 21 14 -7 16 -6 12 6 -7 17 21 22 31 6z m-125 -26 c0 -29 16 -34 23
-7 4 13 5 11 6 -5 1 -25 -20 -31 -36 -10 -12 15 -13 47 -1 47 4 0 8 -11 8 -25z
m-2084 -11 c-18 -17 -26 -18 -26 -1 0 7 9 13 20 14 18 2 18 0 6 -13z m234 -20
c0 -8 -4 -12 -10 -9 -5 3 -10 10 -10 16 0 5 5 9 10 9 6 0 10 -7 10 -16z m-181
-3 c7 -5 10 -14 7 -20 -8 -13 -46 3 -46 19 0 12 20 13 39 1z m-37 -33 c-13
-13 -32 -2 -32 18 0 12 4 13 21 3 14 -7 18 -14 11 -21z m75 10 c-3 -8 -6 -5
-6 6 -1 11 2 17 5 13 3 -3 4 -12 1 -19z m-7 -38 c-8 -5 -17 -7 -19 -4 -3 3 1
9 9 14 8 5 17 7 19 4 3 -3 -1 -9 -9 -14z m2030 -24 c0 -3 -4 -8 -10 -11 -5 -3
-10 -1 -10 4 0 6 5 11 10 11 6 0 10 -2 10 -4z m-1430 -16 c0 -5 -4 -10 -10
-10 -5 0 -10 5 -10 10 0 6 5 10 10 10 6 0 10 -4 10 -10z m-55 -20 c-3 -5 -11
-10 -16 -10 -6 0 -7 5 -4 10 3 6 11 10 16 10 6 0 7 -4 4 -10z m1662 -82 c-3
-7 -5 -2 -5 12 0 14 2 19 5 13 2 -7 2 -19 0 -25z m-2147 -212 c0 -3 -4 -8 -10
-11 -5 -3 -10 -1 -10 4 0 6 5 11 10 11 6 0 10 -2 10 -4z m17 -42 c-9 -9 -28 6
-21 18 4 6 10 6 17 -1 6 -6 8 -13 4 -17z m-17 -35 c0 -19 -11 -25 -24 -12 -4
4 -15 8 -23 8 -9 0 -18 6 -21 14 -3 8 0 11 6 7 6 -3 13 -2 16 3 10 16 46 0 46
-20z m75 12 c3 -5 1 -12 -5 -16 -20 -12 -10 -26 10 -15 23 12 40 6 40 -15 0
-10 -11 -13 -36 -12 -42 3 -71 32 -53 54 13 15 35 17 44 4z m178 -78 c-6 -16
-29 -17 -38 -3 -4 6 -4 18 -1 26 4 12 9 12 25 2 10 -6 17 -18 14 -25z m-266
21 c-3 -3 -12 -4 -19 -1 -8 3 -5 6 6 6 11 1 17 -2 13 -5z m8 -94 c16 -17 16
-20 2 -20 -9 0 -19 5 -23 11 -4 8 -9 7 -15 -2 -7 -11 -9 -11 -9 2 0 33 19 37
45 9z m402 14 c-3 -3 -12 -4 -19 -1 -8 3 -5 6 6 6 11 1 17 -2 13 -5z m163 -8
c0 -16 -14 -36 -26 -36 -8 0 -14 2 -14 4 0 2 -3 11 -6 20 -5 12 0 16 20 16 14
0 26 -2 26 -4z m-653 -48 c-3 -8 -6 -5 -6 6 -1 11 2 17 5 13 3 -3 4 -12 1 -19z
m583 2 c0 -5 -4 -10 -10 -10 -5 0 -10 5 -10 10 0 6 5 10 10 10 6 0 10 -4 10
-10z m-35 -33 c-4 -8 -16 -18 -27 -21 -20 -5 -20 -4 3 18 27 26 32 27 24 3z
m-575 -9 c0 -19 -2 -20 -10 -8 -13 19 -13 30 0 30 6 0 10 -10 10 -22z m120 12
c0 -5 -4 -10 -9 -10 -6 0 -13 5 -16 10 -3 6 1 10 9 10 9 0 16 -4 16 -10z m550
-10 c0 -5 -7 -10 -15 -10 -8 0 -15 5 -15 10 0 6 7 10 15 10 8 0 15 -4 15 -10z
m-620 -20 c0 -5 -4 -12 -10 -15 -5 -3 -10 -4 -10 -1 0 2 -3 12 -6 20 -5 12 -2
15 10 10 9 -3 16 -10 16 -14z m535 -28 c-3 -3 -11 0 -18 7 -9 10 -8 11 6 5 10
-3 15 -9 12 -12z m1643 -1 c-2 -11 -12 -15 -33 -13 -35 4 -39 7 -31 20 3 5 19
9 36 9 23 0 30 -4 28 -16z m119 4 c0 -8 -4 -15 -9 -15 -4 0 -8 7 -8 15 0 8 4
15 8 15 5 0 9 -7 9 -15z m-2033 -10 c11 -8 17 -18 13 -21 -4 -4 -12 -2 -20 4
-17 14 -57 4 -57 -15 0 -25 -25 -8 -28 19 -3 22 1 25 35 26 21 1 47 -5 57 -13z
m296 -5 c0 -5 -8 -10 -17 -10 -15 0 -16 2 -3 10 19 12 20 12 20 0z m120 6 c0
-2 3 -11 6 -20 4 -10 0 -14 -15 -13 -11 0 -18 3 -16 6 3 2 0 10 -6 18 -9 10
-7 13 10 13 11 0 21 -2 21 -4z m-505 -72 c8 -20 19 -33 25 -29 5 3 10 3 10 -2
0 -4 3 -18 6 -30 4 -13 2 -23 -3 -23 -11 0 -73 101 -73 119 0 21 20 1 35 -35z
m-315 -2 c0 -12 -3 -12 -15 -2 -8 7 -15 13 -15 15 0 1 7 2 15 2 8 0 15 -7 15
-15z m120 -44 c0 -17 3 -19 12 -10 15 15 28 16 28 2 0 -6 -10 -15 -22 -19 -17
-7 -26 -5 -35 7 -17 22 -16 42 2 42 9 0 15 -9 15 -22z m2116 8 c18 -18 18 -30
1 -23 -7 3 -21 -1 -32 -9 -29 -21 -42 -17 -17 6 12 12 22 25 22 30 0 14 9 12
26 -4z m-2176 -6 c0 -5 -4 -10 -9 -10 -5 0 -16 -3 -25 -6 -11 -4 -16 -1 -16
10 0 10 9 16 25 16 14 0 25 -4 25 -10z m140 6 c0 -2 3 -11 6 -20 4 -12 0 -16
-15 -16 -14 0 -21 6 -21 20 0 11 7 20 15 20 8 0 15 -2 15 -4z m180 -6 c0 -5
-2 -10 -4 -10 -3 0 -8 5 -11 10 -3 6 -1 10 4 10 6 0 11 -4 11 -10z m1920 -30
c0 -5 -2 -10 -4 -10 -3 0 -8 5 -11 10 -3 6 -1 10 4 10 6 0 11 -4 11 -10z
m-2020 -20 c0 -5 -7 -10 -16 -10 -8 0 -12 5 -9 10 3 6 10 10 16 10 5 0 9 -4 9
-10z m-220 -21 c0 -5 -9 -9 -20 -9 -22 0 -27 16 -7 23 15 5 27 -1 27 -14z
m515 -38 c-3 -6 -13 -11 -21 -11 -8 0 -12 5 -9 10 4 6 11 8 16 5 5 -4 9 -1 9
6 0 7 3 10 6 6 3 -3 3 -10 -1 -16z m-585 -31 c0 -5 -7 -10 -16 -10 -8 0 -12 5
-9 10 3 6 10 10 16 10 5 0 9 -4 9 -10z m390 -106 c0 -10 -31 -36 -37 -31 -10
10 6 37 22 37 8 0 15 -3 15 -6z m60 -4 c0 -5 -4 -10 -9 -10 -6 0 -13 5 -16 10
-3 6 1 10 9 10 9 0 16 -4 16 -10z m130 -170 c0 -5 -2 -10 -4 -10 -3 0 -8 5
-11 10 -3 6 -1 10 4 10 6 0 11 -4 11 -10z m-230 -81 c0 -5 6 -7 13 -3 9 5 9 4
0 -6 -6 -7 -16 -9 -22 -6 -14 9 -14 26 -1 26 6 0 10 -5 10 -11z m90 -26 c-1
-24 -2 -26 -11 -10 -5 9 -7 22 -4 27 10 17 15 11 15 -17z m-98 -25 c-7 -7 -12
-8 -12 -2 0 14 12 26 19 19 2 -3 -1 -11 -7 -17z m-391 -31 c-13 -13 -26 -3
-16 12 3 6 11 8 17 5 6 -4 6 -10 -1 -17z m443 17 c9 -3 16 -15 16 -26 0 -11
-5 -18 -12 -15 -7 2 -12 10 -10 16 1 6 -2 11 -8 11 -5 0 -10 5 -10 10 0 12 3
12 24 4z m-309 -55 c16 0 24 -3 18 -6 -7 -2 -13 -11 -13 -18 0 -8 -5 -17 -11
-21 -7 -4 -9 0 -5 13 5 17 1 22 -24 27 -19 3 -29 10 -25 17 5 8 10 8 18 0 6
-6 25 -11 42 -12z m155 -19 c0 -4 -9 -10 -20 -13 -15 -4 -20 0 -20 13 0 13 5
17 20 13 11 -3 20 -9 20 -13z m80 -11 c0 -12 -37 -12 -45 0 -3 5 3 11 12 13
21 5 33 0 33 -13z m-160 -9 c-8 -6 -22 -10 -30 -9 -9 0 -5 6 10 14 27 14 44
10 20 -5z m20 -74 c0 -3 -4 -8 -10 -11 -5 -3 -10 -1 -10 4 0 6 5 11 10 11 6 0
10 -2 10 -4z m-290 -21 c7 -9 8 -15 2 -15 -5 0 -12 7 -16 15 -3 8 -4 15 -2 15
2 0 9 -7 16 -15z m115 -5 c10 -11 16 -20 13 -20 -3 0 -13 9 -23 20 -10 11 -16
20 -13 20 3 0 13 -9 23 -20z m135 10 c0 -5 -8 -10 -17 -10 -15 0 -16 2 -3 10
19 12 20 12 20 0z m25 -20 c3 -5 1 -10 -4 -10 -6 0 -11 5 -11 10 0 6 2 10 4
10 3 0 8 -4 11 -10z m-29 -15 c18 -14 18 -14 -8 -13 -16 1 -28 8 -28 15 0 17
12 16 36 -2z m174 6 c0 -6 -4 -12 -10 -16 -5 -3 -7 -12 -3 -20 3 -8 0 -15 -6
-15 -6 0 -11 5 -11 10 0 6 -5 9 -12 8 -20 -5 -21 30 -1 35 31 8 43 7 43 -2z
m67 -7 c-3 -3 -12 -4 -19 -1 -8 3 -5 6 6 6 11 1 17 -2 13 -5z m-167 -18 c0 -3
-4 -8 -10 -11 -5 -3 -10 -1 -10 4 0 6 5 11 10 11 6 0 10 -2 10 -4z"/>
<path d="M1500 2430 c20 -13 60 -13 60 0 0 6 -17 10 -37 10 -28 0 -34 -3 -23
-10z"/>
<path d="M1486 2401 c5 -5 20 -12 34 -16 22 -7 23 -6 8 9 -9 9 -25 16 -34 16
-11 0 -14 -3 -8 -9z"/>
<path d="M1493 2343 c-22 -8 -14 -18 15 -19 15 0 36 -4 47 -8 17 -7 17 -5 -4
13 -23 21 -35 24 -58 14z"/>
<path d="M1188 1899 c-26 -15 -22 -30 6 -23 13 3 41 -3 67 -15 118 -53 139
-57 139 -25 0 20 -117 74 -160 74 -19 0 -43 -5 -52 -11z"/>
<path d="M1265 1783 c-27 -2 -61 -6 -75 -9 -23 -6 -20 -8 30 -31 64 -29 146
-53 154 -45 13 12 5 39 -19 65 -14 15 -29 26 -33 25 -4 -1 -29 -3 -57 -5z"/>
<path d="M1590 1705 c-38 -14 -44 -23 -31 -44 10 -15 148 -39 226 -40 l40 0
-42 39 c-23 22 -48 40 -55 40 -6 0 -3 -7 8 -16 19 -15 19 -16 -1 -9 -11 4 -38
9 -59 13 -36 5 -37 6 -21 19 18 12 17 13 -6 12 -13 -1 -40 -7 -59 -14z"/>
<path d="M1580 1620 c19 -13 30 -13 30 0 0 6 -10 10 -22 10 -19 0 -20 -2 -8
-10z"/>
<path d="M1200 1389 c0 -14 48 -76 64 -82 10 -4 13 3 12 26 -1 24 -8 36 -31
49 -35 20 -45 22 -45 7z"/>
<path d="M1560 1310 c-19 -4 -29 -8 -21 -9 18 -1 -30 -40 -50 -39 -36 2 -60
-3 -54 -12 11 -18 94 -11 138 11 61 31 71 40 55 50 -14 10 -18 10 -68 -1z"/>
<path d="M1290 1290 c0 -5 5 -10 11 -10 5 0 7 5 4 10 -3 6 -8 10 -11 10 -2 0
-4 -4 -4 -10z"/>
<path d="M1349 1264 c18 -8 36 -13 39 -10 8 9 0 13 -38 19 l-35 6 34 -15z"/>
<path d="M1126 799 c-13 -8 -15 -13 -6 -19 16 -10 -1 -66 -31 -104 -11 -14
-26 -50 -34 -81 -31 -117 -72 -153 -68 -59 2 40 -1 34 -12 -29 -7 -42 -18 -91
-24 -109 -16 -45 -13 -48 9 -8 20 39 73 96 112 122 49 33 88 143 88 248 0 52
-3 56 -34 39z"/>
<path d="M2055 770 c3 -5 8 -10 11 -10 2 0 4 5 4 10 0 6 -5 10 -11 10 -5 0 -7
-4 -4 -10z"/>
<path d="M1784 716 c-83 -63 -151 -125 -137 -126 11 0 186 140 198 160 11 18
-2 11 -61 -34z"/>
<path d="M1250 676 c0 -8 8 -19 18 -25 14 -8 15 -12 5 -22 -19 -19 -16 -29 7
-29 11 0 20 -5 20 -12 0 -6 -3 -8 -6 -5 -4 3 -16 0 -28 -8 -11 -8 -29 -15 -39
-15 -21 0 -131 -56 -147 -75 -9 -10 -3 -10 29 1 22 8 54 11 71 7 30 -6 172 13
198 27 10 5 -1 27 -40 86 -50 74 -88 105 -88 70z"/>
<path d="M2490 310 c0 -5 5 -10 11 -10 5 0 7 5 4 10 -3 6 -8 10 -11 10 -2 0
-4 -4 -4 -10z"/>
<path d="M2523 296 c0 -16 5 -24 16 -24 9 1 23 -1 31 -3 13 -4 16 6 11 41 0 6
-14 10 -30 10 -24 0 -28 -4 -28 -24z"/>
<path d="M2483 275 c0 -8 4 -12 9 -9 4 3 8 9 8 15 0 5 -4 9 -8 9 -5 0 -9 -7
-9 -15z"/>
<path d="M852 139 c-29 -73 -50 -135 -47 -138 9 -8 36 12 59 43 15 19 21 44
22 86 0 32 7 72 13 89 7 16 11 35 9 41 -2 6 -27 -48 -56 -121z"/>
<path d="M466 142 c-3 -3 -3 -9 0 -13 7 -12 54 -12 54 0 0 10 -47 21 -54 13z"/>
<path d="M2518 23 c7 -3 16 -2 19 1 4 3 -2 6 -13 5 -11 0 -14 -3 -6 -6z"/>
</g>
</svg>
